<?xml version="1.0" encoding="UTF-8" standalone="no"?>
<svg
   xmlns:dc="http://purl.org/dc/elements/1.1/"
   xmlns:cc="http://creativecommons.org/ns#"
   xmlns:rdf="http://www.w3.org/1999/02/22-rdf-syntax-ns#"
   xmlns:svg="http://www.w3.org/2000/svg"
   xmlns="http://www.w3.org/2000/svg"
   xmlns:sodipodi="http://sodipodi.sourceforge.net/DTD/sodipodi-0.dtd"
   xmlns:inkscape="http://www.inkscape.org/namespaces/inkscape"
   viewBox="0 0 1870.3848 512.03247"
   version="1.1"
   id="svg4"
   sodipodi:docname="dna-solid.svg"
   inkscape:version="1.0.1 (3bc2e813f5, 2020-09-07)"
   width="1870.3848"
   height="512.03247">
  <metadata
     id="metadata10">
    <rdf:RDF>
      <cc:Work
         rdf:about="">
        <dc:format>image/svg+xml</dc:format>
        <dc:type
           rdf:resource="http://purl.org/dc/dcmitype/StillImage" />
      </cc:Work>
    </rdf:RDF>
  </metadata>
  <defs
     id="defs8">
    <rect
       x="-188.71072"
       y="-137.53844"
       width="673.95038"
       height="949.32501"
       id="rect854" />
  </defs>
  <sodipodi:namedview
     pagecolor="#ffffff"
     bordercolor="#666666"
     borderopacity="1"
     objecttolerance="10"
     gridtolerance="10"
     guidetolerance="10"
     inkscape:pageopacity="0"
     inkscape:pageshadow="2"
     inkscape:window-width="1920"
     inkscape:window-height="1016"
     id="namedview6"
     showgrid="false"
     inkscape:zoom="0.44533018"
     inkscape:cx="738.39566"
     inkscape:cy="299.35374"
     inkscape:window-x="0"
     inkscape:window-y="27"
     inkscape:window-maximized="1"
     inkscape:current-layer="svg4"
     inkscape:document-rotation="0" />
  <!--! Font Awesome Pro 6.0.0 by @fontawesome - https://fontawesome.com License - https://fontawesome.com/license (Commercial License) Copyright 2022 Fonticons, Inc. -->
  <g
     id="g861">
    <path
       d="m 109.94108,383.09739 219.40008,2e-5 c 8.375,10.87 15.48,21.63 21.23,32 l -261.50008,-2e-5 -16.588314,32.46676 -8.58831,32.46676 H 375.89446 c 1.625,6.875 2.904,13.31 3.529,18.18 1.125,7.1 7.84,13.94 15.97,13.82 l 32.46,-0.0625 c 9.625,0 17.12,-8.374 15.99,-17.87 -4.625,-37.87 -25.75,-128.1 -119.1,-207.7 -17.5,12.37 -36.98,24.37 -58.48,35.49 6.25,4.625 11.56,9.405 17.06,14.15 h -127.5523"
       id="path2-3"
       sodipodi:nodetypes="ccccccccccccccc"
       style="fill:#005aa0;fill-opacity:1" />
    <path
       d="m 338.01531,128.93506 -219.40008,-2e-5 c -8.375,-10.87 -15.48,-21.63 -21.23,-32.000004 l 261.50008,2e-5 16.58831,-32.46676 8.58831,-32.46676 H 72.061932 c -1.625,-6.875 -2.904,-13.31 -3.529,-18.18 -1.125,-7.1000003 -7.84,-13.9400103 -15.97,-13.8200103 l -32.46,0.0625 c -9.625,0 -17.1200004,8.37401 -15.9900004,17.8700103 4.625,37.87 25.7500004,128.100004 119.0999984,207.699994 17.5,-12.37 36.98,-24.37 58.48,-35.49 -6.25,-4.625 -11.56,-9.405 -17.06,-14.15 h 127.5523"
       id="path2-3-3"
       sodipodi:nodetypes="ccccccccccccccc"
       style="fill:#005aa0;fill-opacity:1" />
    <path
       d="m 136.77844,359.56947 c 30.22115,-29.26322 69.945,-59.1595 101.565,-74.9095 172.1,-85.5 203.70001,-218.799999 209.50001,-266.699996 1.125,-9.5000043 -6.297,-17.8800043 -15.92,-17.8800043 L 399.59344,-3.0296875e-5 c -8.125,0 -14.84,5.831999996875 -15.96,13.830000296875 -0.7501,4.875004 -1.6724,12.248342 -3.369,18.170002 -6.3136,22.037072 -14.4976,43.711742 -25.171,63.999 -5.8241,11.070028 -13.1947,21.325048 -21,31.099678 -13.9498,17.46955 -28.9022,34.37931 -45.9,48.90032 -19.7037,16.83268 -42.3078,29.99161 -64.3,43.7 -20.7908,12.95956 -63.86,36.3838 -63.86,36.3838 -128.489999,84.2162 -154.7949994,195.1162 -159.92069936,238.0162 -1.12500004,9.5 6.31199996,17.87 15.94000036,17.87 l 32.06,0.0635 c 8.125,0 15.21,-5.833 16.21,-13.83 0.37505,-2.4375 1.7902,-12.24263 3.49429,-18.17028 6.41391,-22.31064 13.66577,-44.7732 25.175999,-64.933 11.68755,-20.47037 26.85134,-39.13241 43.78541,-55.52972 z"
       id="path2"
       sodipodi:nodetypes="accccccaaaacccccaaa"
       style="fill:#d23264;fill-opacity:1" />
  </g>
  <text
     xml:space="preserve"
     style="font-size:256px;line-height:1.25;font-family:Helvetica;-inkscape-font-specification:Helvetica;text-align:center;letter-spacing:0px;word-spacing:0px;text-anchor:middle;fill:#000000;fill-opacity:1;"
     x="1189.2983"
     y="346.89621"
     id="text850"><tspan
       sodipodi:role="line"
       id="tspan848"
       x="1189.2983"
       y="346.89621"
       style="font-style:normal;font-variant:normal;font-weight:normal;font-stretch:normal;font-size:256px;font-family:Hermann;-inkscape-font-specification:Hermann;fill:#000000;fill-opacity:1;"
       rotate="0 0 0 0 0 0 0 0 0 0">Propulate</tspan></text>
  <text
     xml:space="preserve"
     id="text852"
     style="font-size:10.6667px;line-height:1.25;font-family:Helvetica;-inkscape-font-specification:Helvetica;text-align:center;letter-spacing:0px;word-spacing:0px;white-space:pre;shape-inside:url(#rect854)" />
</svg>
