<?xml version="1.0" encoding="UTF-8" standalone="no"?>
<svg
   xmlns:dc="http://purl.org/dc/elements/1.1/"
   xmlns:cc="http://creativecommons.org/ns#"
   xmlns:rdf="http://www.w3.org/1999/02/22-rdf-syntax-ns#"
   xmlns:svg="http://www.w3.org/2000/svg"
   xmlns="http://www.w3.org/2000/svg"
   xmlns:sodipodi="http://sodipodi.sourceforge.net/DTD/sodipodi-0.dtd"
   xmlns:inkscape="http://www.inkscape.org/namespaces/inkscape"
   version="1.1"
   id="svg2"
   xml:space="preserve"
   width="464.78668"
   height="29.48"
   viewBox="0 0 464.78668 29.48"
   sodipodi:docname="logo_HelmholtzAI.eps"><metadata
     id="metadata8"><rdf:RDF><cc:Work
         rdf:about=""><dc:format>image/svg+xml</dc:format><dc:type
           rdf:resource="http://purl.org/dc/dcmitype/StillImage" /></cc:Work></rdf:RDF></metadata><defs
     id="defs6" /><sodipodi:namedview
     pagecolor="#ffffff"
     bordercolor="#666666"
     borderopacity="1"
     objecttolerance="10"
     gridtolerance="10"
     guidetolerance="10"
     inkscape:pageopacity="0"
     inkscape:pageshadow="2"
     inkscape:window-width="640"
     inkscape:window-height="480"
     id="namedview4" /><g
     id="g10"
     inkscape:groupmode="layer"
     inkscape:label="ink_ext_XXXXXX"
     transform="matrix(1.3333333,0,0,-1.3333333,0,29.48)"><g
       id="g12"
       transform="scale(0.1)"><path
         d="m 114.719,130.645 v 86.863 H 155.91 V 2.87891 H 114.719 V 89.4531 H 41.1641 V 2.87891 H 0 V 217.508 h 41.1641 v -86.863 h 73.5549"
         style="fill:#125a9e;fill-opacity:1;fill-rule:nonzero;stroke:none"
         id="path14" /><path
         d="m 337.363,217.508 v -41.16 h -94.16 v -45.703 h 81.738 V 89.4531 H 243.203 V 44.043 h 94.16 V 2.87891 H 222.316 c -1.82,0 -3.644,0.61718 -4.851,2.12109 l -13.313,13.3086 c -1.504,1.2109 -2.117,3.0391 -2.117,4.8555 V 197.25 c 0,1.797 0.613,3.621 2.117,4.828 l 13.313,13.313 c 1.207,1.234 3.031,2.117 4.851,2.117 h 115.047"
         style="fill:#125a9e;fill-opacity:1;fill-rule:nonzero;stroke:none"
         id="path16" /><path
         d="m 401.035,2.87891 c -1.828,0 -3.648,0.61718 -4.859,2.12109 l -13.313,13.3086 c -1.527,1.2109 -2.117,3.0391 -2.117,4.8555 V 217.508 h 41.168 V 44.043 h 89.598 V 2.87891 H 401.035"
         style="fill:#125a9e;fill-opacity:1;fill-rule:nonzero;stroke:none"
         id="path18" /><path
         d="M 732.578,217.508 V 2.87891 H 691.41 V 121.547 L 657.816,51.3164 c -1.207,-2.4101 -3.628,-3.9453 -6.062,-3.9453 h -24.211 c -2.734,0 -5.152,1.5352 -6.359,3.9453 L 587.586,121.547 V 2.87891 H 546.422 V 217.508 h 41.164 l 52.062,-108.981 51.762,108.981 h 41.168"
         style="fill:#125a9e;fill-opacity:1;fill-rule:nonzero;stroke:none"
         id="path20" /><path
         d="m 890.734,130.645 v 86.863 h 41.192 V 2.87891 H 890.734 V 89.4531 H 817.176 V 2.87891 H 776.008 V 217.508 h 41.168 v -86.863 h 73.558"
         style="fill:#125a9e;fill-opacity:1;fill-rule:nonzero;stroke:none"
         id="path22" /><path
         d="m 1087.64,64.043 v 92.016 c 0,1.82 -0.91,3.648 -2.12,4.851 l -13.02,13.317 c -1.52,1.207 -3.33,2.121 -5.15,2.121 h -36.93 c -1.82,0 -3.32,-0.914 -4.85,-2.121 l -13.02,-13.317 c -1.5,-1.203 -2.12,-3.031 -2.12,-4.851 V 64.043 c 0,-1.8282 0.62,-3.3321 2.12,-4.8633 l 13.02,-13.0078 c 1.53,-1.5156 3.03,-2.1289 4.85,-2.1289 h 36.93 c 1.82,0 3.63,0.6133 5.15,2.1289 l 13.02,13.0078 c 1.21,1.5312 2.12,3.0351 2.12,4.8633 z m 9.69,143.187 21.49,-21.203 c 6.36,-6.355 9.98,-15.129 9.98,-24.203 V 58.5938 c 0,-9.1016 -3.62,-17.8711 -9.98,-24.2305 l -21.49,-21.5039 c -6.36,-6.35549 -15.14,-9.98049 -24.24,-9.98049 h -48.11 c -9.1,0 -18.17,3.33203 -24.53,9.98049 l -21.196,21.5039 c -6.359,6.3594 -9.988,15.1289 -9.988,24.2305 V 161.824 c 0,9.074 3.629,17.848 9.988,24.203 l 21.196,21.203 c 6.66,6.657 15.43,10.278 24.53,10.278 h 48.11 c 9.1,0 17.58,-3.914 24.24,-10.278"
         style="fill:#125a9e;fill-opacity:1;fill-rule:nonzero;stroke:none"
         id="path24" /><path
         d="m 1185.53,2.87891 c -1.83,0 -3.65,0.61718 -4.86,2.12109 l -13.31,13.3086 c -1.53,1.2109 -2.12,3.0391 -2.12,4.8555 V 217.508 h 41.16 V 44.043 H 1296 V 2.87891 h -110.47"
         style="fill:#125a9e;fill-opacity:1;fill-rule:nonzero;stroke:none"
         id="path26" /><path
         d="m 1293.05,176.348 v 41.16 h 155 v -41.16 h -56.92 V 2.87891 h -41.16 V 176.348 h -56.92"
         style="fill:#125a9e;fill-opacity:1;fill-rule:nonzero;stroke:none"
         id="path28" /><path
         d="m 1607.41,215.391 13.32,-13.313 c 1.2,-1.207 2.12,-3.031 2.12,-4.828 V 186.648 L 1532.63,44.043 h 89 V 2.87891 h -122.9 c -1.82,0 -3.65,0.61718 -4.85,2.12109 l -13.31,13.3086 c -1.22,1.2109 -2.13,3.0391 -2.13,4.8555 v 12.4023 l 89.01,140.7816 h -90.21 v 41.16 h 125.32 c 1.82,0 3.64,-0.883 4.85,-2.117"
         style="fill:#125a9e;fill-opacity:1;fill-rule:nonzero;stroke:none"
         id="path30" /><path
         d="m 1724.32,85.8984 h 50.5 l -25.39,72.2966 z M 1709.78,44.7539 1694.97,3.00781 h -43.57 l 73.81,209.64819 c 0.9,3 3.34,4.828 6.35,4.828 h 36 c 2.71,0 5.44,-1.828 6.36,-4.546 L 1847.71,3.00781 h -43.54 l -14.82,41.74609 h -79.57"
         style="fill:#80cd33;fill-opacity:1;fill-rule:nonzero;stroke:none"
         id="path32" /><path
         d="m 1918.99,3.00781 h -41.13 V 217.484 h 41.13 V 3.00781"
         style="fill:#80cd33;fill-opacity:1;fill-rule:nonzero;stroke:none"
         id="path34" /><path
         d="m 1996.39,0 h -7.34 v 221.102 h 7.34 V 0"
         style="fill:#125a9e;fill-opacity:1;fill-rule:nonzero;stroke:none"
         id="path36" /><path
         d="m 2095.08,201.121 -12.22,-39 h 24.57 z m 6.5,16.117 29.64,-86.972 h -13.91 l -6.37,20.285 h -31.6 l -6.49,-20.285 h -13.78 l 29.51,86.972 h 13"
         style="fill:#125a9e;fill-opacity:1;fill-rule:nonzero;stroke:none"
         id="path38" /><path
         d="m 2163.32,176.684 c 9.36,0 12.23,0.254 15.73,1.55 5.46,1.954 8.46,6.633 8.46,13.137 0,5.59 -2.35,9.75 -6.77,11.832 -3.63,1.817 -6.49,2.207 -18.07,2.207 h -5.33 v -28.726 z m -0.77,40.296 c 14.42,0 19.88,-0.781 25.73,-3.511 8.19,-3.899 13.13,-12.219 13.13,-22.231 0,-11.441 -5.58,-19.496 -16.51,-23.922 l 21.33,-37.05 h -15.86 l -19.64,34.843 h -13.39 v -34.843 h -13.39 v 86.714 h 18.6"
         style="fill:#125a9e;fill-opacity:1;fill-rule:nonzero;stroke:none"
         id="path40" /><path
         d="m 2268.77,216.98 v -11.57 h -22.88 v -75.144 h -13.4 v 75.144 h -22.62 v 11.57 h 58.9"
         style="fill:#125a9e;fill-opacity:1;fill-rule:nonzero;stroke:none"
         id="path42" /><path
         d="m 2281.38,130.266 v 86.714 h 13.51 v -86.714 h -13.51"
         style="fill:#125a9e;fill-opacity:1;fill-rule:nonzero;stroke:none"
         id="path44" /><path
         d="m 2364.71,180.969 v -11.571 h -34.85 v -39.132 h -13.39 v 86.714 h 51.35 v -11.57 h -37.96 v -24.441 h 34.85"
         style="fill:#125a9e;fill-opacity:1;fill-rule:nonzero;stroke:none"
         id="path46" /><path
         d="m 2381.86,130.266 v 86.714 h 13.52 v -86.714 h -13.52"
         style="fill:#125a9e;fill-opacity:1;fill-rule:nonzero;stroke:none"
         id="path48" /><path
         d="m 2466.62,190.723 c -2.08,10.785 -8.06,16.117 -17.81,16.117 -14.17,0 -23.01,-12.871 -23.01,-33.281 0,-20.411 8.84,-33.157 23.14,-33.157 11.05,0 17.29,7.024 18.6,20.801 h 12.21 c -1.29,-21.191 -11.83,-32.5 -30.42,-32.5 -22.88,0 -37.57,17.422 -37.57,44.727 0,27.3 14.56,45.109 37.05,45.109 17.42,0 28.08,-10.012 29.65,-27.816 h -11.84"
         style="fill:#125a9e;fill-opacity:1;fill-rule:nonzero;stroke:none"
         id="path50" /><path
         d="m 2494.83,130.266 v 86.714 h 13.52 v -86.714 h -13.52"
         style="fill:#125a9e;fill-opacity:1;fill-rule:nonzero;stroke:none"
         id="path52" /><path
         d="m 2557.1,201.121 -12.22,-39 h 24.57 z m 6.5,16.117 29.64,-86.972 h -13.91 l -6.37,20.285 h -31.59 l -6.5,-20.285 h -13.78 l 29.51,86.972 h 13"
         style="fill:#125a9e;fill-opacity:1;fill-rule:nonzero;stroke:none"
         id="path54" /><path
         d="m 2619.75,216.98 v -75.14 h 37.32 v -11.574 h -51.09 v 86.714 h 13.77"
         style="fill:#125a9e;fill-opacity:1;fill-rule:nonzero;stroke:none"
         id="path56" /><path
         d="m 2702.83,130.266 v 86.714 h 13.52 v -86.714 h -13.52"
         style="fill:#125a9e;fill-opacity:1;fill-rule:nonzero;stroke:none"
         id="path58" /><path
         d="m 2752.36,216.98 38.09,-66.304 v 66.304 h 12.74 v -86.714 h -13.91 l -38.61,66.172 v -66.172 h -12.74 v 86.714 h 14.43"
         style="fill:#125a9e;fill-opacity:1;fill-rule:nonzero;stroke:none"
         id="path60" /><path
         d="m 2874.95,216.98 v -11.57 h -22.88 v -75.144 h -13.4 v 75.144 h -22.62 v 11.57 h 58.9"
         style="fill:#125a9e;fill-opacity:1;fill-rule:nonzero;stroke:none"
         id="path62" /><path
         d="m 2935.92,180.969 v -11.571 h -34.85 V 141.84 h 39.01 v -11.574 h -52.4 v 86.714 h 51.35 v -11.57 h -37.96 v -24.441 h 34.85"
         style="fill:#125a9e;fill-opacity:1;fill-rule:nonzero;stroke:none"
         id="path64" /><path
         d="m 2969.06,216.98 v -75.14 h 37.32 v -11.574 h -51.1 v 86.714 h 13.78"
         style="fill:#125a9e;fill-opacity:1;fill-rule:nonzero;stroke:none"
         id="path66" /><path
         d="m 3033.54,216.98 v -75.14 h 37.32 v -11.574 h -51.1 v 86.714 h 13.78"
         style="fill:#125a9e;fill-opacity:1;fill-rule:nonzero;stroke:none"
         id="path68" /><path
         d="m 3084.12,130.266 v 86.714 h 13.52 v -86.714 h -13.52"
         style="fill:#125a9e;fill-opacity:1;fill-rule:nonzero;stroke:none"
         id="path70" /><path
         d="m 3183.18,174.211 v -35.887 c -9.24,-6.496 -19.11,-9.621 -30.42,-9.621 -24.05,0 -38.75,17.031 -38.75,44.981 0,27.175 14.7,44.855 37.44,44.855 10.67,0 19.38,-3.898 24.84,-10.918 3.38,-4.551 4.94,-9.23 5.72,-16.773 h -11.96 c -1.96,10.793 -7.93,15.992 -18.33,15.992 -14.69,0 -23.66,-12.481 -23.66,-33.281 0,-10.664 2.59,-19.629 7.53,-25.743 3.91,-4.941 9.76,-7.414 17.17,-7.414 6.63,0 13.25,1.953 18.98,5.598 v 17.676 h -17.55 v 10.535 h 28.99"
         style="fill:#125a9e;fill-opacity:1;fill-rule:nonzero;stroke:none"
         id="path72" /><path
         d="m 3249.61,180.969 v -11.571 h -34.85 V 141.84 h 39.01 v -11.574 h -52.39 v 86.714 h 51.34 v -11.57 h -37.96 v -24.441 h 34.85"
         style="fill:#125a9e;fill-opacity:1;fill-rule:nonzero;stroke:none"
         id="path74" /><path
         d="m 3283.41,216.98 38.08,-66.304 v 66.304 h 12.75 v -86.714 h -13.92 l -38.6,66.172 v -66.172 h -12.75 v 86.714 h 14.44"
         style="fill:#125a9e;fill-opacity:1;fill-rule:nonzero;stroke:none"
         id="path76" /><path
         d="m 3405.21,190.723 c -2.08,10.785 -8.05,16.117 -17.81,16.117 -14.17,0 -23.01,-12.871 -23.01,-33.281 0,-20.411 8.84,-33.157 23.15,-33.157 11.04,0 17.28,7.024 18.59,20.801 h 12.22 c -1.3,-21.191 -11.84,-32.5 -30.42,-32.5 -22.88,0 -37.58,17.422 -37.58,44.727 0,27.3 14.56,45.109 37.05,45.109 17.42,0 28.09,-10.012 29.65,-27.816 h -11.84"
         style="fill:#125a9e;fill-opacity:1;fill-rule:nonzero;stroke:none"
         id="path78" /><path
         d="m 3481.79,180.969 v -11.571 h -34.85 V 141.84 h 39.01 v -11.574 h -52.4 v 86.714 h 51.35 v -11.57 h -37.96 v -24.441 h 34.85"
         style="fill:#125a9e;fill-opacity:1;fill-rule:nonzero;stroke:none"
         id="path80" /><path
         d="m 2117.57,62.7227 c -2.08,10.7812 -8.06,16.1132 -17.81,16.1132 -14.18,0 -23.01,-12.8711 -23.01,-33.2812 0,-20.4102 8.83,-33.1445 23.14,-33.1445 11.05,0 17.29,7.0117 18.59,20.8007 h 12.22 c -1.3,-21.1914 -11.83,-32.499962 -30.42,-32.499962 -22.88,0 -37.58,17.421862 -37.58,44.726562 0,27.2852 14.56,45.0977 37.06,45.0977 17.42,0 28.08,-10 29.64,-27.8125 h -11.83"
         style="fill:#125a9e;fill-opacity:1;fill-rule:nonzero;stroke:none"
         id="path82" /><path
         d="m 2154.62,46.082 c 0,-20.9375 8.97,-33.8086 23.4,-33.8086 6.76,0 12.74,2.9883 16.51,8.3204 4.42,6.5039 6.76,15.2148 6.76,25.0976 0,20.1563 -9.23,33.2813 -23.4,33.2813 -14.04,0 -23.27,-13.0079 -23.27,-32.8907 z m 60.71,-0.3906 c 0,-26.7773 -15.08,-44.980462 -37.31,-44.980462 -22.75,0 -37.45,17.929662 -37.45,45.624962 0,26.1329 15.22,44.1993 37.32,44.1993 22.36,0 37.44,-18.0664 37.44,-44.8438"
         style="fill:#125a9e;fill-opacity:1;fill-rule:nonzero;stroke:none"
         id="path84" /><path
         d="m 2240.42,46.082 c 0,-20.9375 8.97,-33.8086 23.4,-33.8086 6.76,0 12.74,2.9883 16.51,8.3204 4.42,6.5039 6.76,15.2148 6.76,25.0976 0,20.1563 -9.23,33.2813 -23.4,33.2813 -14.04,0 -23.27,-13.0079 -23.27,-32.8907 z m 60.71,-0.3906 c 0,-26.7773 -15.08,-44.980462 -37.31,-44.980462 -22.75,0 -37.44,17.929662 -37.44,45.624962 0,26.1329 15.21,44.1993 37.31,44.1993 22.36,0 37.44,-18.0664 37.44,-44.8438"
         style="fill:#125a9e;fill-opacity:1;fill-rule:nonzero;stroke:none"
         id="path86" /><path
         d="m 2336.49,47.5078 c 9.23,0 11.97,0.2539 15.6,1.3086 5.72,1.6797 8.85,6.5039 8.85,13.3789 0,6.5039 -2.47,11.0547 -7.16,13.1445 -3.63,1.543 -7.54,2.0704 -17.41,2.0704 h -5.6 V 47.5078 Z m -1.69,41.4649 c 13,0 18.72,-0.6446 24.31,-2.461 9.76,-3.2422 15.73,-12.4804 15.73,-24.4336 0,-11.582 -5.72,-20.5468 -15.34,-23.789 -5.19,-1.836 -10.65,-2.3438 -23.01,-2.3438 h -5.72 V 2.27344 h -13.39 V 88.9727 h 17.42"
         style="fill:#125a9e;fill-opacity:1;fill-rule:nonzero;stroke:none"
         id="path88" /><path
         d="M 2436.73,52.9766 V 41.3945 h -34.85 V 13.8359 h 39.01 V 2.27344 h -52.4 V 88.9727 h 51.35 V 77.4102 h -37.96 V 52.9766 h 34.85"
         style="fill:#125a9e;fill-opacity:1;fill-rule:nonzero;stroke:none"
         id="path90" /><path
         d="m 2475.47,48.6797 c 9.35,0 12.21,0.2539 15.72,1.5625 5.46,1.9531 8.46,6.6211 8.46,13.125 0,5.5859 -2.35,9.7461 -6.77,11.8359 -3.63,1.8164 -6.49,2.2071 -18.07,2.2071 h -5.33 V 48.6797 Z m -0.78,40.293 c 14.42,0 19.88,-0.7618 25.74,-3.4961 8.18,-3.9063 13.12,-12.2266 13.12,-22.2266 0,-11.4453 -5.58,-19.5117 -16.51,-23.9258 l 21.33,-37.05076 h -15.87 l -19.63,34.84376 h -13.39 V 2.27344 h -13.39 V 88.9727 h 18.6"
         style="fill:#125a9e;fill-opacity:1;fill-rule:nonzero;stroke:none"
         id="path92" /><path
         d="m 2558.27,73.1133 -12.22,-38.9844 h 24.57 z m 6.5,16.1328 29.64,-86.97266 h -13.9 l -6.38,20.27346 h -31.59 l -6.5,-20.27346 h -13.78 l 29.52,86.97266 h 12.99"
         style="fill:#125a9e;fill-opacity:1;fill-rule:nonzero;stroke:none"
         id="path94" /><path
         d="M 2649.53,88.9727 V 77.4102 h -22.88 V 2.27344 h -13.4 V 77.4102 h -22.62 v 11.5625 h 58.9"
         style="fill:#125a9e;fill-opacity:1;fill-rule:nonzero;stroke:none"
         id="path96" /><path
         d="M 2662.13,2.27344 V 88.9727 h 13.51 V 2.27344 h -13.51"
         style="fill:#125a9e;fill-opacity:1;fill-rule:nonzero;stroke:none"
         id="path98" /><path
         d="m 2706.07,46.082 c 0,-20.9375 8.98,-33.8086 23.4,-33.8086 6.77,0 12.75,2.9883 16.52,8.3204 4.42,6.5039 6.75,15.2148 6.75,25.0976 0,20.1563 -9.23,33.2813 -23.4,33.2813 -14.04,0 -23.27,-13.0079 -23.27,-32.8907 z m 60.72,-0.3906 c 0,-26.7773 -15.08,-44.980462 -37.32,-44.980462 -22.74,0 -37.44,17.929662 -37.44,45.624962 0,26.1329 15.21,44.1993 37.31,44.1993 22.37,0 37.45,-18.0664 37.45,-44.8438"
         style="fill:#125a9e;fill-opacity:1;fill-rule:nonzero;stroke:none"
         id="path100" /><path
         d="m 2797.47,88.9727 38.09,-66.2891 v 66.2891 h 12.74 V 2.27344 h -13.92 l -38.6,66.17186 V 2.27344 h -12.74 V 88.9727 h 14.43"
         style="fill:#125a9e;fill-opacity:1;fill-rule:nonzero;stroke:none"
         id="path102" /><path
         d="m 2914.73,88.9727 v -50.293 c 0,-10.8008 0.39,-13.9258 2.33,-17.6953 2.73,-5.4492 8.84,-8.5742 16.9,-8.5742 9.36,0 15.74,4.0234 18.07,11.4453 0.92,2.9883 1.17,5.9765 1.17,14.8242 v 50.293 h 13.39 V 38.4063 c 0,-12.8711 -0.52,-16.6407 -2.72,-21.5821 -4.69,-10.1367 -15.61,-16.113262 -29.91,-16.113262 -14.17,0 -25.22,5.976562 -29.9,16.113262 -2.21,5.0781 -2.73,8.711 -2.73,21.5821 v 50.5664 h 13.4"
         style="fill:#125a9e;fill-opacity:1;fill-rule:nonzero;stroke:none"
         id="path104" /><path
         d="m 3001.43,88.9727 38.09,-66.2891 v 66.2891 h 12.74 V 2.27344 h -13.91 L 2999.74,68.4453 V 2.27344 H 2987 V 88.9727 h 14.43"
         style="fill:#125a9e;fill-opacity:1;fill-rule:nonzero;stroke:none"
         id="path106" /><path
         d="M 3073.71,2.27344 V 88.9727 h 13.52 V 2.27344 h -13.52"
         style="fill:#125a9e;fill-opacity:1;fill-rule:nonzero;stroke:none"
         id="path108" /><path
         d="M 3158.98,88.9727 V 77.4102 H 3136.1 V 2.27344 h -13.4 V 77.4102 h -22.61 v 11.5625 h 58.89"
         style="fill:#125a9e;fill-opacity:1;fill-rule:nonzero;stroke:none"
         id="path110" /></g></g></svg>
