<?xml version="1.0" encoding="UTF-8" standalone="no"?>
<svg
   viewBox="0 0 1870.1309 512.03253"
   version="1.1"
   id="svg4"
   width="1870.1309"
   height="512.03253"
   xmlns="http://www.w3.org/2000/svg"
   xmlns:svg="http://www.w3.org/2000/svg"
   xmlns:rdf="http://www.w3.org/1999/02/22-rdf-syntax-ns#"
   xmlns:cc="http://creativecommons.org/ns#"
   xmlns:dc="http://purl.org/dc/elements/1.1/">
  <metadata
     id="metadata10">
    <rdf:RDF>
      <cc:Work
         rdf:about="">
        <dc:format>image/svg+xml</dc:format>
        <dc:type
           rdf:resource="http://purl.org/dc/dcmitype/StillImage" />
      </cc:Work>
    </rdf:RDF>
  </metadata>
  <defs
     id="defs8" />
  <!--! Font Awesome Pro 6.0.0 by @fontawesome - https://fontawesome.com License - https://fontawesome.com/license (Commercial License) Copyright 2022 Fonticons, Inc. -->
  <g
     id="g861"
     transform="translate(-2.7596399e-7,3.0341249e-5)">
    <path
       d="m 109.94108,383.09739 219.40008,2e-5 c 8.375,10.87 15.48,21.63 21.23,32 l -261.50008,-2e-5 -16.588314,32.46676 -8.58831,32.46676 H 375.89446 c 1.625,6.875 2.904,13.31 3.529,18.18 1.125,7.1 7.84,13.94 15.97,13.82 l 32.46,-0.0625 c 9.625,0 17.12,-8.374 15.99,-17.87 -4.625,-37.87 -25.75,-128.1 -119.1,-207.7 -17.5,12.37 -36.98,24.37 -58.48,35.49 6.25,4.625 11.56,9.405 17.06,14.15 h -127.5523"
       id="path2-3"
       style="fill:#005aa0;fill-opacity:1" />
    <path
       d="m 338.01531,128.93506 -219.40008,-2e-5 c -8.375,-10.87 -15.48,-21.63 -21.23,-32.000004 l 261.50008,2e-5 16.58831,-32.46676 8.58831,-32.46676 H 72.061932 c -1.625,-6.875 -2.904,-13.31 -3.529,-18.18 -1.125,-7.1000003 -7.84,-13.9400103 -15.97,-13.8200103 l -32.46,0.0625 c -9.625,0 -17.1200004,8.37401 -15.9900004,17.8700103 4.625,37.87 25.7500004,128.100004 119.0999984,207.699994 17.5,-12.37 36.98,-24.37 58.48,-35.49 -6.25,-4.625 -11.56,-9.405 -17.06,-14.15 h 127.5523"
       id="path2-3-3"
       style="fill:#005aa0;fill-opacity:1" />
    <path
       d="m 136.77844,359.56947 c 30.22115,-29.26322 69.945,-59.1595 101.565,-74.9095 172.1,-85.5 203.70001,-218.799999 209.50001,-266.699996 1.125,-9.5000043 -6.297,-17.8800043 -15.92,-17.8800043 L 399.59344,-3.0296875e-5 c -8.125,0 -14.84,5.831999996875 -15.96,13.830000296875 -0.7501,4.875004 -1.6724,12.248342 -3.369,18.170002 -6.3136,22.037072 -14.4976,43.711742 -25.171,63.999 -5.8241,11.070028 -13.1947,21.325048 -21,31.099678 -13.9498,17.46955 -28.9022,34.37931 -45.9,48.90032 -19.7037,16.83268 -42.3078,29.99161 -64.3,43.7 -20.7908,12.95956 -63.86,36.3838 -63.86,36.3838 -128.489999,84.2162 -154.7949994,195.1162 -159.92069936,238.0162 -1.12500004,9.5 6.31199996,17.87 15.94000036,17.87 l 32.06,0.0635 c 8.125,0 15.21,-5.833 16.21,-13.83 0.37505,-2.4375 1.7902,-12.24263 3.49429,-18.17028 6.41391,-22.31064 13.66577,-44.7732 25.175999,-64.933 11.68755,-20.47037 26.85134,-39.13241 43.78541,-55.52972 z"
       id="path2"
       style="fill:#d23264;fill-opacity:1" />
  </g>
  <g
     aria-label="Propulate"
     id="text850"
     style="font-size:256px;line-height:1.25;font-family:Helvetica;-inkscape-font-specification:Helvetica;text-align:center;letter-spacing:0px;word-spacing:0px;text-anchor:middle"
     transform="translate(-2.7596399e-7,3.0341249e-5)">
    <path
       d="m 593.9701,165.39221 h -86.016 v 181.504 h 34.816 v -62.208 h 51.2 c 7.68,0 14.848,-3.072 20.48,-8.448 l 17.92,-17.92 c 5.376,-5.376 8.448,-12.8 8.448,-20.48 v -25.344 c 0,-7.68 -3.072,-15.104 -8.448,-20.48 l -17.92,-17.92 c -5.632,-5.632 -12.8,-8.704 -20.48,-8.704 z m -4.864,84.48 h -46.336 v -49.664 h 46.336 c 1.536,0 3.072,0.768 4.096,1.792 l 11.008,11.264 c 1.28,1.024 1.792,10.24 1.792,11.776 v 7.936 c 0,1.536 -0.512,3.072 -1.792,4.096 l -11.008,11.264 c -1.024,1.024 -2.56,1.536 -4.096,1.536 z"
       style="font-family:Hermann;-inkscape-font-specification:Hermann"
       id="path333" />
    <path
       d="m 771.12216,287.50421 19.2,-19.456 c 5.632,-5.376 8.704,-12.8 8.704,-20.48 v -34.816 c 0,-7.936 -3.072,-15.104 -8.704,-20.736 l -17.92,-17.92 c -5.376,-5.376 -12.8,-8.448 -20.48,-8.448 h -82.944 v 181.248 h 34.816 v -52.224 h 31.232 l 29.184,52.224 h 39.68 z m -67.328,-87.04 h 43.264 c 1.536,0 3.072,0.512 4.096,1.792 l 11.264,11.008 c 1.024,1.28 1.792,2.56 1.792,4.096 v 25.344 c 0,1.536 -0.768,3.072 -1.792,4.096 l -11.264,11.264 c -1.024,1.024 -2.56,1.792 -4.096,1.792 h -43.264 z"
       style="font-family:Hermann;-inkscape-font-specification:Hermann"
       id="path335" />
    <path
       d="m 923.95456,165.13621 h -40.704 c -7.68,0 -15.104,3.072 -20.736,8.704 l -17.92,17.92 c -5.376,5.376 -8.448,12.8 -8.448,20.48 v 87.552 c 0,7.68 3.072,15.104 8.448,20.48 l 17.92,18.176 c 5.376,5.632 13.056,8.448 20.736,8.448 h 40.704 c 7.68,0 15.104,-3.072 20.48,-8.448 l 18.176,-18.176 c 5.376,-5.376 8.448,-12.8 8.448,-20.48 v -87.552 c 0,-7.68 -3.072,-15.104 -8.448,-20.48 l -18.176,-17.92 c -5.632,-5.376 -12.8,-8.704 -20.48,-8.704 z m 10.496,134.144 -11.008,11.008 c -1.28,1.28 -2.816,1.792 -4.352,1.792 h -31.232 c -1.536,0 -2.816,-0.512 -4.096,-1.792 l -11.008,-11.008 c -1.28,-1.28 -1.792,-2.56 -1.792,-4.096 v -78.08 c 0,-1.536 0.512,-3.072 1.792,-4.096 l 11.008,-11.264 c 1.28,-1.024 2.56,-1.792 4.096,-1.792 h 31.232 c 1.536,0 3.072,0.768 4.352,1.792 l 11.008,11.264 c 0.768,1.28 1.792,2.56 1.792,4.096 v 78.08 c 0,1.536 -0.768,2.816 -1.792,4.096 z"
       style="font-family:Hermann;-inkscape-font-specification:Hermann"
       id="path337" />
    <path
       d="m 1087.5385,165.39221 h -86.016 v 181.504 h 34.816 v -62.208 h 51.2 c 7.68,0 14.848,-3.072 20.48,-8.448 l 17.92,-17.92 c 5.376,-5.376 8.448,-12.8 8.448,-20.48 v -25.344 c 0,-7.68 -3.072,-15.104 -8.448,-20.48 l -17.92,-17.92 c -5.632,-5.632 -12.8,-8.704 -20.48,-8.704 z m -4.864,84.48 h -46.336 v -49.664 h 46.336 c 1.536,0 3.072,0.768 4.096,1.792 l 11.008,11.264 c 1.28,1.024 1.792,10.24 1.792,11.776 v 7.936 c 0,1.536 -0.512,3.072 -1.792,4.096 l -11.008,11.264 c -1.024,1.024 -2.56,1.536 -4.096,1.536 z"
       style="font-family:Hermann;-inkscape-font-specification:Hermann"
       id="path339" />
    <path
       d="m 1258.5465,295.18421 v -129.792 h 35.072 v 134.4 c 0,7.68 -3.328,14.848 -8.96,20.48 l -17.92,18.176 c -5.12,5.376 -12.544,8.448 -20.224,8.448 h -34.56 c -7.68,0 -15.104,-3.072 -20.48,-8.448 l -17.92,-18.176 c -5.376,-5.632 -8.448,-12.8 -8.448,-20.48 v -134.4 h 34.816 v 129.792 c 0,1.536 0.512,2.816 1.536,4.096 l 11.264,11.008 c 1.024,1.28 2.56,1.792 4.096,1.792 h 24.832 c 1.536,0 3.072,-0.512 4.096,-1.792 l 11.264,-11.008 c 1.024,-1.28 1.536,-2.56 1.536,-4.096 z"
       style="font-family:Hermann;-inkscape-font-specification:Hermann"
       id="path341" />
    <path
       d="m 1361.7146,312.08021 v -146.432 h -34.816 v 164.352 c 0,1.536 0.512,3.072 1.536,4.096 l 11.264,11.264 c 1.024,1.024 2.56,1.536 4.096,1.536 h 82.688 v -34.816 z"
       style="font-family:Hermann;-inkscape-font-specification:Hermann"
       id="path343" />
    <path
       d="m 1563.9546,311.56821 12.544,35.328 h 36.864 l -62.464,-177.664 c -0.768,-2.304 -3.072,-3.84 -5.376,-3.84 h -30.464 c -2.56,0 -4.608,1.536 -5.376,4.096 l -62.464,177.408 h 36.864 l 12.544,-35.328 z m -33.792,-96 21.504,61.184 h -42.752 z"
       style="font-family:Hermann;-inkscape-font-specification:Hermann"
       id="path345" />
    <path
       d="m 1608.2427,200.20821 v -34.816 h 125.952 v 34.816 h -45.568 v 146.688 h -34.816 v -146.688 z"
       style="font-family:Hermann;-inkscape-font-specification:Hermann"
       id="path347" />
    <path
       d="m 1790.7707,200.46421 v 38.4 h 66.304 v 34.816 h -66.304 v 38.4 h 79.36 v 34.816 h -97.28 c -1.536,0 -3.072,-0.512 -4.096,-1.536 l -11.264,-11.264 c -1.024,-1.024 -1.536,-2.56 -1.536,-4.096 v -147.456 c 0,-1.536 0.512,-2.816 1.536,-4.096 l 11.264,-11.264 c 1.024,-1.024 2.56,-1.536 4.096,-1.536 h 97.28 v 34.816 z"
       style="font-family:Hermann;-inkscape-font-specification:Hermann"
       id="path349" />
  </g>
</svg>
